# xmcd
#
# Track frame offsets:
#	150
#	13121
#	27505
#	40896
#	47727
#	59519
#	72799
#	84777
#	91092
#	105596
#	121567
#	131002
#	143184
#	152987
#
# Disc length: 2184 seconds
#
# Revision: 0
# Processed by: cddbd v1.5.2PL0 Copyright (c) Steve Scherf et al.
# Submitted via: dBpowerAMP V4.0
#
DISCID=b208860e
DTITLE=The Platters - Only you (Platinum Collection) cd2
DYEAR=2005
DGENRE=Soul
TTITLE0=Crying in the chapel
TTITLE1=I'll cry when you're gone
TTITLE2=Love all night
TTITLE3=The magic touch (Medley)
TTITLE4=Maggie doesn't work here anymore
TTITLE5=Twilight time
TTITLE6=My name ain't Annie
TTITLE7=Remember when (Medley)
TTITLE8=Ridin' on the mainline
TTITLE9=My prayer
TTITLE10=Roses of Picardy
TTITLE11=Shake it up mambo
TTITLE12=Voo-vee-ah-bee
TTITLE13=Harbour lights
EXTD=PC219\nWeton-Wesgram
EXTT0=
EXTT1=
EXTT2=
EXTT3=
EXTT4=
EXTT5=
EXTT6=
EXTT7=
EXTT8=
EXTT9=
EXTT10=
EXTT11=
EXTT12=
EXTT13=
PLAYORDER=
